<svg width="48" height="48" viewBox="0 0 48 48" fill="none" xmlns="http://www.w3.org/2000/svg">
<rect x="10.3433" y="6.33826" width="26.5879" height="33.2349" rx="4" fill="#F5F5F5"/>
<path d="M23.6372 6.33826H32.9312C35.1403 6.33826 36.9312 8.12912 36.9312 10.3383V35.5732C36.9312 37.7823 35.1403 39.5732 32.9312 39.5732H23.6372V6.33826Z" fill="#EEEEEE"/>
<circle cx="31.1574" cy="30.476" r="4.06759" transform="rotate(-45 31.1574 30.476)" fill="#EEEEEE" stroke="#242B36" stroke-width="2.5"/>
<path d="M33.0845 33.9997L34.6806 32.4036L38.6736 36.3966C39.0641 36.7871 39.0641 37.4203 38.6736 37.8108L38.4917 37.9927C38.1012 38.3832 37.468 38.3832 37.0775 37.9927L33.0845 33.9997Z" fill="#242B36"/>
<rect x="13.002" y="10.3265" width="21.2704" height="5.31759" fill="#408CFF"/>
<rect x="13.002" y="18.3029" width="9.30578" height="1.3294" fill="#394454"/>
<rect x="13.002" y="22.291" width="15.9528" height="1.3294" fill="#394454"/>
<rect x="23.6372" y="22.291" width="5.31759" height="1.3294" fill="#242B36"/>
<rect x="13.002" y="26.2792" width="5.31759" height="1.3294" fill="#394454"/>
<rect x="23.6372" y="10.3265" width="10.6352" height="5.31759" fill="#3370CC"/>
</svg>
