<svg width="48" height="48" viewBox="0 0 48 48" fill="none" xmlns="http://www.w3.org/2000/svg">
<circle cx="30" cy="25" r="10" fill="#EEEEEE" stroke="#242B36" stroke-width="2.5"/>
<circle cx="18" cy="23" r="10" fill="#F5F5F5" stroke="#394454" stroke-width="2.5"/>
<path d="M25.0711 15.9289C26.9464 17.8043 28 20.3478 28 23C28 25.6522 26.9464 28.1957 25.0711 30.0711C23.1957 31.9464 20.6522 33 18 33C15.3478 33 12.8043 31.9464 10.9289 30.0711L18 23L25.0711 15.9289Z" fill="#EEEEEE"/>
<path d="M25.0708 15.9293C26.9462 17.8047 27.9998 20.3482 27.9998 23.0004C27.9998 25.6526 26.9462 28.1961 25.0708 30.0715C23.1955 31.9468 20.6519 33.0004 17.9998 33.0004C15.3476 33.0004 12.8041 31.9468 10.9287 30.0715" stroke="#242B36" stroke-width="2.5"/>
<path d="M13.5 20.4375L15.75 26.9375L18 20.4375L20.25 26.9375L22.5 20.4375" stroke="#408CFF" stroke-width="2.5" stroke-linecap="round" stroke-linejoin="round"/>
<path d="M12 23H24" stroke="#408CFF" stroke-width="2.5" stroke-linecap="round" stroke-linejoin="round"/>
<mask id="mask0_8706_5517" style="mask-type:alpha" maskUnits="userSpaceOnUse" x="10" y="15" width="18" height="18">
<path d="M25.0711 15.9289C26.9464 17.8043 28 20.3478 28 23C28 25.6522 26.9464 28.1957 25.0711 30.0711C23.1957 31.9464 20.6522 33 18 33C15.3478 33 12.8043 31.9464 10.9289 30.0711L18 23L25.0711 15.9289Z" fill="#F0F0F0"/>
</mask>
<g mask="url(#mask0_8706_5517)">
<path d="M13.5 20.4375L15.75 26.9375L18 20.4375L20.25 26.9375L22.5 20.4375" stroke="#3370CC" stroke-width="2.5" stroke-linecap="round" stroke-linejoin="round"/>
<path d="M12 23H24" stroke="#3370CC" stroke-width="2.5" stroke-linecap="round" stroke-linejoin="round"/>
</g>
</svg>
