<svg width="48" height="48" viewBox="0 0 48 48" fill="none" xmlns="http://www.w3.org/2000/svg">
<rect x="5.6001" y="9.21454" width="36.8" height="26.2859" rx="4" fill="#F5F5F5"/>
<path d="M24 9.21454H38.4C40.6091 9.21454 42.4 11.0054 42.4 13.2145V31.5005C42.4 33.7096 40.6091 35.5005 38.4 35.5005H24V9.21454Z" fill="#EEEEEE"/>
<path d="M25.9722 35.5004H22.0293L23.1432 37.3569C23.5316 38.0043 24.4698 38.0043 24.8582 37.3569L25.9722 35.5004Z" fill="#F5F5F5"/>
<path d="M24 35.5005V37.8433C24.3318 37.8434 24.6631 37.6807 24.8574 37.3569L25.9717 35.5005H24Z" fill="#EEEEEE"/>
<path d="M14.8002 22.357C14.8002 21.1488 15.0382 19.9525 15.5005 18.8363C15.9628 17.7201 16.6405 16.7059 17.4948 15.8516C18.3491 14.9973 19.3633 14.3196 20.4795 13.8572C21.5957 13.3949 22.792 13.1569 24.0002 13.1569C25.2084 13.1569 26.4047 13.3949 27.5209 13.8572C28.6371 14.3196 29.6513 14.9973 30.5056 15.8516C31.3599 16.7059 32.0375 17.7201 32.4999 18.8363C32.9622 19.9525 33.2002 21.1488 33.2002 22.357" stroke="#394454" stroke-width="2"/>
<path d="M24.0002 13.1569C25.2084 13.1569 26.4047 13.3949 27.5209 13.8572C28.6371 14.3196 29.6513 14.9973 30.5056 15.8516C31.3599 16.7059 32.0375 17.7201 32.4999 18.8363C32.9622 19.9525 33.2002 21.1488 33.2002 22.357" stroke="#242B36" stroke-width="2"/>
<path d="M24.0002 31.5571C25.2084 31.5571 26.4047 31.3191 27.5209 30.8568C28.6371 30.3944 29.6513 29.7167 30.5056 28.8624C31.3599 28.0081 32.0375 26.9939 32.4999 25.8777C32.9622 24.7615 33.2002 23.5652 33.2002 22.357" stroke="#242B36" stroke-width="2"/>
<rect x="13.4863" y="19.072" width="3.94286" height="6.57148" rx="1.97143" fill="#408CFF"/>
<rect x="31.0718" y="19.572" width="2.94286" height="5.57148" rx="1.47143" fill="#3370CC" stroke="#3370CC"/>
<path d="M22.5845 31.5071C22.5845 30.7254 23.2182 30.0917 23.9999 30.0917C24.7816 30.0917 25.4152 30.7254 25.4152 31.5071C25.4152 32.2888 24.7816 32.9225 23.9999 32.9225C23.2182 32.9225 22.5845 32.2888 22.5845 31.5071Z" fill="#394454"/>
<path d="M24 30.0917C24.7817 30.0917 25.4154 30.7254 25.4154 31.5071C25.4154 32.2888 24.7817 32.9225 24 32.9225V30.0917Z" fill="#242B36"/>
</svg>
