<svg width="48" height="48" viewBox="0 0 48 48" fill="none" xmlns="http://www.w3.org/2000/svg">
<path d="M7.2002 20.9998H40.8002V33.8C40.8002 36.0091 39.0093 37.8 36.8002 37.8H11.2002C8.99106 37.8 7.2002 36.0091 7.2002 33.8V20.9998Z" fill="#F5F5F5"/>
<path d="M24 20.9998H40.8V33.8C40.8 36.0091 39.0091 37.8 36.8 37.8H24V20.9998Z" fill="#EEEEEE"/>
<path d="M19.2002 14.2003C19.2002 11.9912 20.9911 10.2003 23.2002 10.2003H24.8002C27.0093 10.2003 28.8002 11.9912 28.8002 14.2003V15.0004H27.0002V14.0003C27.0002 12.8958 26.1048 12.0003 25.0002 12.0003H23.0002C21.8956 12.0003 21.0002 12.8958 21.0002 14.0003V15.0004H19.2002V14.2003Z" fill="#394454"/>
<path d="M24 10.2003H24.8C27.0091 10.2003 28.8 11.9912 28.8 14.2003V15.0004H27V14.0003C27 12.8958 26.1046 12.0003 25 12.0003H24V10.2003Z" fill="#242B36"/>
<rect x="21.6001" y="25.7999" width="4.8" height="3.60004" fill="#408CFF"/>
<path d="M24 25.7999H26.4V29.3999H24V25.7999Z" fill="#3370CC"/>
<path d="M7.2002 19.0008C7.2002 16.7917 8.99106 15.0008 11.2002 15.0008H36.8002C39.0093 15.0008 40.8002 16.7917 40.8002 19.0008V21.0009L26.6391 24.5412C26.4804 24.5808 26.3175 24.6009 26.154 24.6009H21.8464C21.6829 24.6009 21.52 24.5808 21.3613 24.5412L7.2002 21.0009V19.0008Z" fill="#394454"/>
<path d="M24 15.0008H36.8C39.0091 15.0008 40.8 16.7917 40.8 19.0008V21.0009L27.5943 24.3023C26.8011 24.5006 25.9866 24.6009 25.1689 24.6009H24V15.0008Z" fill="#242B36"/>
</svg>
