<svg width="48" height="48" viewBox="0 0 48 48" fill="none" xmlns="http://www.w3.org/2000/svg">
<path d="M15.04 21.7598H32.96V38.7999C32.96 39.9045 32.0646 40.7999 30.96 40.7999H17.04C15.9355 40.7999 15.04 39.9045 15.04 38.7999V21.7598Z" fill="#F5F5F5"/>
<path d="M15.04 17.2806C15.04 14.1878 17.5473 11.6805 20.6401 11.6805H27.36C30.4528 11.6805 32.96 14.1878 32.96 17.2806H15.04Z" fill="#F5F5F5"/>
<path d="M24 11.6805H27.36C30.4528 11.6805 32.96 14.1878 32.96 17.2806H24V11.6805Z" fill="#EEEEEE"/>
<path d="M21.7603 9.43995C21.7603 8.20283 22.7631 7.19995 24.0003 7.19995C25.2374 7.19995 26.2403 8.20283 26.2403 9.43995V11.68H21.7603V9.43995Z" fill="#F5F5F5"/>
<path d="M24 7.19995C25.2371 7.19995 26.24 8.20283 26.24 9.43995V11.68H24V7.19995Z" fill="#EEEEEE"/>
<rect x="13.9199" y="17.28" width="20.16" height="4.48004" rx="2" fill="#394454"/>
<path d="M24 21.7598H32.96V38.7999C32.96 39.9045 32.0646 40.7999 30.96 40.7999H24V21.7598Z" fill="#EEEEEE"/>
<path d="M24 17.28H32.08C33.1846 17.28 34.08 18.1755 34.08 19.28V19.7601C34.08 20.8646 33.1846 21.7601 32.08 21.7601H24V17.28Z" fill="#242B36"/>
<rect x="17.2798" y="29.6004" width="13.44" height="8.96007" rx="2" fill="#408CFF"/>
<path d="M24 29.6004H28.72C29.8246 29.6004 30.72 30.4958 30.72 31.6004V36.5605C30.72 37.665 29.8246 38.5605 28.72 38.5605H24V29.6004Z" fill="#3370CC"/>
<rect x="26.2402" y="24.0001" width="4.48" height="1.12001" fill="#242B36"/>
<rect x="26.2402" y="26.2404" width="4.48" height="1.12001" fill="#242B36"/>
</svg>
