<svg width="48" height="48" viewBox="0 0 48 48" fill="none" xmlns="http://www.w3.org/2000/svg">
<path d="M19.5635 11.4764C19.5635 9.11461 21.4781 7.20001 23.8398 7.20001C26.2016 7.20001 28.1162 9.11461 28.1162 11.4764V13.3091H19.5635V11.4764Z" fill="#F5F5F5"/>
<path d="M23.8398 7.20001C26.2016 7.20001 28.1162 9.11461 28.1162 11.4764V13.3091H23.8398V7.20001Z" fill="#EEEEEE"/>
<path d="M37.8911 23.0836H39.7238C42.0856 23.0836 44.0002 24.9982 44.0002 27.36C44.0002 29.7218 42.0856 31.6363 39.7238 31.6363H37.8911V23.0836Z" fill="#EEEEEE"/>
<path d="M37.8906 40.8004H28.1162V38.9674C28.1162 36.6056 26.2016 34.691 23.8398 34.691C21.4781 34.6911 19.5635 36.6057 19.5635 38.9674V40.8004H10.4004V13.3092H37.8906V40.8004Z" fill="#F5F5F5"/>
<path d="M23.8398 13.3091H37.8908V40.8H28.1162V38.9673C28.1162 36.6055 26.2016 34.6909 23.8398 34.6909V13.3091Z" fill="#EEEEEE"/>
<path d="M29.9487 27.9709C29.9487 28.2918 29.7906 28.6096 29.4836 28.9061C29.1766 29.2025 28.7266 29.4719 28.1593 29.6988C27.5921 29.9257 26.9186 30.1057 26.1774 30.2285C25.4362 30.3513 24.6418 30.4146 23.8396 30.4146C23.0373 30.4146 22.2429 30.3513 21.5017 30.2285C20.7605 30.1057 20.0871 29.9257 19.5198 29.6988C18.9525 29.4719 18.5025 29.2025 18.1955 28.9061C17.8885 28.6096 17.7305 28.2918 17.7305 27.9709L23.8396 27.9709H29.9487Z" fill="#242B36"/>
<rect x="17.7305" y="24.3054" width="6.10909" height="3.66545" fill="#242B36"/>
<rect x="23.8398" y="24.3054" width="6.10909" height="3.66545" fill="#242B36"/>
<path d="M23.8398 20.64V26.7491L32.3926 23.6946L23.8398 20.64Z" fill="#3370CC"/>
<path d="M23.8398 20.64V26.7491L15.2871 23.6946L23.8398 20.64Z" fill="#408CFF"/>
</svg>
