<svg width="48" height="48" viewBox="0 0 48 48" fill="none" xmlns="http://www.w3.org/2000/svg">
<path d="M11.1997 15.6798H17.8797C18.432 15.6798 18.8797 15.2321 18.8797 14.6798V7.99982H32.7997C35.0088 7.99982 36.7997 9.79068 36.7997 11.9998V35.9998C36.7997 38.209 35.0088 39.9998 32.7997 39.9998H15.1997C12.9906 39.9998 11.1997 38.209 11.1997 35.9998V15.6798Z" fill="#F5F5F5"/>
<path d="M18.8799 7.99981L18.8799 14.6798C18.8799 15.2321 18.4322 15.6798 17.8799 15.6798L11.1999 15.6798L18.8799 7.99981Z" fill="#394454"/>
<path d="M24 7.99982H32.8C35.0091 7.99982 36.8 9.79068 36.8 11.9998V35.9998C36.8 38.209 35.0091 39.9998 32.8 39.9998H24V7.99982Z" fill="#EEEEEE"/>
<circle cx="23.9999" cy="19.0551" r="2.90909" fill="#408CFF"/>
<path d="M23.9999 16.146C24.7714 16.146 25.5114 16.4525 26.0569 16.998C26.6025 17.5436 26.909 18.2835 26.909 19.0551C26.909 19.8266 26.6025 20.5666 26.0569 21.1121C25.5114 21.6577 24.7715 21.9642 23.9999 21.9642L23.9999 19.0551L23.9999 16.146Z" fill="#3370CC"/>
<rect x="24" y="23.7095" width="2.90909" height="11.6364" fill="#242B36"/>
<rect x="24" y="34.182" width="4.07273" height="1.16364" fill="#242B36"/>
<rect x="21.0908" y="23.7095" width="2.90909" height="11.6364" fill="#394454"/>
<rect x="19.9272" y="34.182" width="4.07273" height="1.16364" fill="#394454"/>
<rect x="19.9272" y="23.7095" width="4.07273" height="1.16364" fill="#394454"/>
</svg>
