<svg width="40" height="40" viewBox="0 0 40 40" fill="none" xmlns="http://www.w3.org/2000/svg">
<rect x="7.88477" y="11.6546" width="1.07692" height="6.46154" fill="#D9E8FF"/>
<circle cx="8.4233" cy="11.3849" r="1.34615" fill="#408CFF"/>
<rect x="31.0391" y="11.6546" width="1.07692" height="6.46154" fill="#D9E8FF"/>
<circle cx="31.5771" cy="11.3849" r="1.34615" fill="#408CFF"/>
<path d="M6 21.3463C6 19.7527 7.05642 18.3522 8.58872 17.9144L9.23057 17.731C9.58793 17.6289 9.95778 17.5771 10.3295 17.5771H16.2308C18.3125 17.5771 20 19.2646 20 21.3463C20 23.428 18.3125 25.1155 16.2308 25.1155H10.3295C9.95778 25.1155 9.58793 25.0637 9.23057 24.9616L8.58872 24.7783C7.05642 24.3405 6 22.9399 6 21.3463Z" fill="#408CFF"/>
<path d="M34 21.3462C34 19.7526 32.9436 18.3521 31.4113 17.9143L30.7694 17.7309C30.4121 17.6288 30.0422 17.577 29.6705 17.577H23.7692C21.6875 17.577 20 19.2645 20 21.3462C20 23.4279 21.6875 25.1154 23.7692 25.1154H29.6705C30.0422 25.1154 30.4121 25.0636 30.7694 24.9615L31.4113 24.7781C32.9436 24.3403 34 22.9398 34 21.3462Z" fill="#408CFF"/>
<rect x="9.23096" y="12.7311" width="21.5385" height="17.2308" rx="8.61538" fill="#408CFF"/>
<rect x="12.4619" y="16.1232" width="14.9423" height="11.9538" rx="5.97692" fill="white"/>
<circle cx="16.7693" cy="19.5166" r="1.07692" fill="#408CFF"/>
<circle cx="23.2307" cy="19.5166" r="1.07692" fill="#408CFF"/>
<path d="M23.2311 22.4915C23.2311 23.3484 22.8907 24.1701 22.2848 24.776C21.6789 25.3819 20.8572 25.7223 20.0003 25.7223C19.1434 25.7223 18.3217 25.3819 17.7158 24.776C17.1099 24.1701 16.7695 23.3484 16.7695 22.4915L20.0003 22.4915H23.2311Z" fill="#408CFF"/>
</svg>
