<svg width="40" height="40" viewBox="0 0 40 40" fill="none" xmlns="http://www.w3.org/2000/svg">
<path d="M8 10C8 8.89543 8.89543 8 10 8H29.9998C31.1044 8 31.9998 8.89543 31.9998 10V22.3998H8V10Z" fill="#408CFF"/>
<path opacity="0.8" d="M9.40771 11.6663C9.40771 10.5618 10.3031 9.66632 11.4077 9.66632H28.5918C29.6964 9.66632 30.5918 10.5618 30.5918 11.6663V22.8154H9.40771V11.6663Z" fill="white"/>
<path d="M8 22.3998H31.9998V23.2797C31.9998 24.3843 31.1044 25.2797 29.9998 25.2797H10C8.89543 25.2797 8 24.3843 8 23.2797V22.3998Z" fill="#408CFF"/>
<rect x="17.6001" y="25.2796" width="4.79997" height="6.7199" fill="#408CFF"/>
<path d="M8 30.08L19.9999 28.16V32H8V30.08Z" fill="#408CFF"/>
<path d="M32 30.08L20.0001 28.16V32H32V30.08Z" fill="#408CFF"/>
<circle cx="19.9997" cy="15.9685" r="4.20431" fill="white"/>
<path d="M19.5767 14.0842L21.779 15.5524C22.0758 15.7503 22.0758 16.1865 21.779 16.3844L19.5767 17.8526C19.2444 18.0741 18.7993 17.8359 18.7993 17.4366V14.5002C18.7993 14.1008 19.2444 13.8626 19.5767 14.0842Z" fill="#408CFF"/>
</svg>
