<svg width="48" height="48" viewBox="0 0 48 48" fill="none" xmlns="http://www.w3.org/2000/svg">
<path fill-rule="evenodd" clip-rule="evenodd" d="M23.9875 11.452C20.4348 7.1269 14.5105 5.96346 10.0592 9.92396C5.60791 13.8845 4.98123 20.5062 8.47685 25.1903C11.3832 29.0848 20.1789 37.2986 23.0617 39.9571C23.3842 40.2545 23.5454 40.4033 23.7335 40.4617C23.8977 40.5127 24.0773 40.5127 24.2415 40.4617C24.4296 40.4033 24.5909 40.2545 24.9134 39.9571C27.7961 37.2986 36.5918 29.0848 39.4982 25.1903C42.9938 20.5062 42.4437 13.8428 37.9159 9.92396C33.3881 6.00512 27.5402 7.1269 23.9875 11.452Z" fill="#408CFF"/>
<path d="M34.1237 25.6215C34.4647 24.7415 34.2916 23.8538 33.7387 23.6396C33.3563 23.4925 32.8913 23.7041 32.5296 24.1377C32.3771 23.9622 32.2092 23.7867 32.0257 23.619C30.8553 22.5403 29.5273 22.0577 28.9744 22.4913C28.499 22.77 28.0288 23.5132 27.7007 24.5041C27.1142 24.0164 26.4166 23.5622 25.6286 23.1725C25.7242 23.0822 25.8094 22.9919 25.8818 22.899C26.2409 22.5325 26.3494 21.6035 26.1143 20.5842C26.0833 20.45 26.0471 20.321 26.0084 20.1971C26.2306 20.0655 26.414 19.8616 26.5148 19.601C26.7525 18.9842 26.4476 18.2926 25.8301 18.0527C25.2126 17.8152 24.5202 18.1198 24.2799 18.7365C24.2695 18.7649 24.2592 18.7959 24.2515 18.8243C23.9517 19.2371 23.8717 20.1068 24.0913 21.0513C24.1507 21.3119 24.2308 21.5597 24.3212 21.7842C24.0835 21.8461 23.8381 21.9313 23.59 22.0397C23.4453 22.1042 23.3058 22.1738 23.1741 22.2461C22.6935 22.1145 22.2233 22.0164 21.7711 21.9493C22.1044 21.5648 22.3809 21.1184 22.5746 20.6178C23.4738 18.2952 22.3189 15.6837 19.9936 14.7856C17.6657 13.8876 15.051 15.0411 14.1519 17.3636C13.2527 19.6862 14.4076 22.2977 16.7329 23.1958C16.8957 23.2577 17.0611 23.3093 17.2264 23.3532C17.2238 23.3635 17.2187 23.3712 17.2161 23.3816C16.8776 24.2538 18.0971 27.6731 22.014 29.3969C25.2694 30.8291 28.5817 30.3311 29.4343 28.6227C29.7986 28.024 30.1087 27.1776 30.2792 26.2125C30.3102 26.0447 30.3334 25.877 30.3541 25.7144C31.1731 26.4266 32.0464 26.8473 32.6717 26.8679C32.7879 26.8834 32.9094 26.8679 33.0334 26.8266C33.0334 26.8266 33.0386 26.8266 33.0411 26.8266C33.0541 26.8215 33.067 26.8189 33.0773 26.8137C33.0902 26.8086 33.1006 26.806 33.1135 26.8008C33.5114 26.6331 33.9015 26.2021 34.1263 25.6241L34.1237 25.6215Z" fill="white"/>
</svg>
