<svg width="48" height="48" viewBox="0 0 48 48" fill="none" xmlns="http://www.w3.org/2000/svg">
<path fill-rule="evenodd" clip-rule="evenodd" d="M19.4283 9.52381C19.0075 9.52381 18.6664 9.86493 18.6664 10.2857V14.8571C18.6664 15.2779 18.3253 15.6191 17.9045 15.6191C17.4837 15.6191 17.1426 15.2779 17.1426 14.8571V10.2857C17.1426 9.02335 18.1659 8 19.4283 8H28.5711C29.8335 8 30.8569 9.02335 30.8569 10.2857V14.8571C30.8569 15.2779 30.5158 15.6191 30.0949 15.6191C29.6742 15.6191 29.3331 15.2779 29.3331 14.8571V10.2857C29.3331 9.86493 28.9919 9.52381 28.5711 9.52381H19.4283Z" fill="#408CFF"/>
<path fill-rule="evenodd" clip-rule="evenodd" d="M18.6666 23.7759V26.2857H8V15.7087C8 14.8176 8.72236 14.0952 9.61345 14.0952H38.3865C39.2777 14.0952 40 14.8176 40 15.7087V26.2857H29.3333V23.7759C29.3333 23.4789 29.0925 23.2381 28.7955 23.2381H19.2044C18.9074 23.2381 18.6666 23.4789 18.6666 23.7759Z" fill="#408CFF"/>
<path fill-rule="evenodd" clip-rule="evenodd" d="M18.6666 27.8095H8V38.3866C8 39.2776 8.72236 40 9.61345 40H38.3865C39.2777 40 40 39.2776 40 38.3866V27.8095H29.3333V30.3193C29.3333 30.6163 29.0925 30.8571 28.7955 30.8571H19.2044C18.9074 30.8571 18.6666 30.6163 18.6666 30.3193V27.8095Z" fill="#408CFF"/>
<path d="M27.8095 24.7619H20.1904V29.3333H27.8095V24.7619Z" fill="#408CFF"/>
</svg>
