<svg width="40" height="40" viewBox="0 0 40 40" fill="none" xmlns="http://www.w3.org/2000/svg">
<path d="M6 26.5334H20V29.3334H8.79996C7.25359 29.3334 6 28.0798 6 26.5334Z" fill="#408CFF"/>
<path d="M6.93311 14.6667C6.93311 12.4576 8.72397 10.6667 10.9331 10.6667H29.0664C31.2756 10.6667 33.0664 12.4575 33.0664 14.6667V26.5332H6.93311V14.6667Z" fill="#408CFF"/>
<path opacity="0.8" d="M7.8667 14.5998C7.8667 12.9429 9.20984 11.5998 10.8667 11.5998H29.1334C30.7902 11.5998 32.1334 12.9429 32.1334 14.5998V26.5329H7.8667V14.5998Z" fill="white"/>
<path d="M20 26.5334H34C34 28.0798 32.7464 29.3334 31.2 29.3334H20V26.5334Z" fill="#408CFF"/>
<ellipse cx="19.9999" cy="19.3138" rx="5.35294" ry="5.35287" fill="#408CFF"/>
<path d="M17.1172 17.6664L18.5584 21.784L19.9995 17.6664L21.4407 21.784L22.8819 17.6664" stroke="white" stroke-linecap="round" stroke-linejoin="round"/>
<path d="M16.2935 18.9017H23.7052" stroke="white" stroke-linecap="round" stroke-linejoin="round"/>
</svg>
