<svg width="40" height="40" viewBox="0 0 40 40" fill="none" xmlns="http://www.w3.org/2000/svg">
<path d="M6.6665 13.5238C6.6665 11.3147 8.45736 9.5238 10.6665 9.5238H29.3332C31.5423 9.5238 33.3332 11.3147 33.3332 13.5238V20V26.4762C33.3332 28.6853 31.5423 30.4762 29.3332 30.4762H10.6665C8.45736 30.4762 6.6665 28.6853 6.6665 26.4762V20V13.5238Z" fill="#408CFF"/>
<path opacity="0.8" d="M9.52246 26.905C9.52246 26.5105 9.84226 26.1907 10.2367 26.1907H29.7606C30.155 26.1907 30.4748 26.5105 30.4748 26.905C30.4748 27.2995 30.155 27.6193 29.7606 27.6193H10.2367C9.84226 27.6193 9.52246 27.2995 9.52246 26.905Z" fill="white"/>
<path d="M24.7603 26.4288C24.7603 25.9028 25.1866 25.4764 25.7126 25.4764C26.2386 25.4764 26.665 25.9028 26.665 26.4288V27.3812C26.665 27.9072 26.2386 28.3336 25.7126 28.3336C25.1866 28.3336 24.7603 27.9072 24.7603 27.3812V26.4288Z" fill="#408CFF"/>
<path d="M22.5112 17.7486C23.5112 18.3259 23.5112 19.7693 22.5112 20.3466L19.8684 21.8725C18.8684 22.4499 17.6184 21.7282 17.6184 20.5735L17.6184 17.5218C17.6184 16.3671 18.8684 15.6454 19.8684 16.2227L22.5112 17.7486Z" fill="white"/>
</svg>
