<svg width="48" height="48" viewBox="0 0 48 48" fill="none" xmlns="http://www.w3.org/2000/svg">
<rect x="8" y="8" width="32" height="32" rx="4" fill="#408CFF"/>
<path d="M21.0371 18.6664V21.6293M34.6667 30.2219L31.7038 31.7034L29.0371 26.9627H21.0371V21.6293M21.0371 21.6293H27.5556" stroke="white" stroke-width="2" stroke-linecap="round" stroke-linejoin="round"/>
<circle cx="21.0374" cy="14.5182" r="2.37037" fill="white"/>
<path d="M27.3551 30.1369C27.0702 31.2653 26.501 32.3018 25.7019 33.1479C24.9027 33.9939 23.9003 34.6211 22.79 34.9699C21.6797 35.3187 20.4986 35.3773 19.3593 35.1401C18.2199 34.903 17.1602 34.3781 16.2813 33.6153C15.4023 32.8526 14.7333 31.8775 14.3381 30.7829C13.9428 29.6883 13.8344 28.5107 14.0233 27.3624C14.2121 26.214 14.6919 25.1332 15.4169 24.2228C16.1419 23.3125 17.088 22.603 18.1649 22.1619" stroke="white" stroke-width="2" stroke-linecap="round"/>
</svg>
