<svg width="48" height="48" viewBox="0 0 48 48" fill="none" xmlns="http://www.w3.org/2000/svg">
<path d="M8 24C8 15.1634 15.1634 8 24 8C32.8366 8 40 15.1634 40 24C40 32.8366 32.8366 40 24 40C15.1634 40 8 32.8366 8 24Z" fill="#408CFF"/>
<path d="M11.4287 24C11.4287 17.057 17.0571 11.4286 24.0001 11.4286C30.9431 11.4286 36.5716 17.057 36.5716 24C36.5716 30.943 30.9431 36.5714 24.0001 36.5714C17.0571 36.5714 11.4287 30.943 11.4287 24Z" fill="white"/>
<path d="M24 24V18.2857" stroke="#408CFF" stroke-width="2" stroke-linecap="round"/>
<path d="M23.9999 23.9999L30.4648 30.4648" stroke="#408CFF" stroke-width="2" stroke-linecap="round"/>
<path d="M24 22.3571C24.9072 22.3571 25.6434 23.0925 25.6436 23.9997C25.6436 24.907 24.9073 25.6432 24 25.6432C23.0928 25.6431 22.3574 24.9069 22.3574 23.9997C22.3576 23.0926 23.0929 22.3573 24 22.3571Z" fill="#408CFF" stroke="white"/>
<path d="M10.2861 24C10.2861 23.6844 10.542 23.4286 10.8576 23.4286H12.0004C12.316 23.4286 12.5718 23.6844 12.5718 24C12.5718 24.3156 12.316 24.5714 12.0004 24.5714H10.8576C10.542 24.5714 10.2861 24.3156 10.2861 24Z" fill="#408CFF"/>
<path d="M23.9999 10.2857C24.3155 10.2857 24.5713 10.5415 24.5713 10.8571L24.5713 12C24.5713 12.3156 24.3155 12.5714 23.9999 12.5714C23.6843 12.5714 23.4284 12.3156 23.4284 12L23.4284 10.8571C23.4284 10.5415 23.6843 10.2857 23.9999 10.2857Z" fill="#408CFF"/>
<path d="M23.9999 35.4286C24.3155 35.4286 24.5713 35.6844 24.5713 36L24.5713 37.1429C24.5713 37.4585 24.3155 37.7143 23.9999 37.7143C23.6843 37.7143 23.4284 37.4585 23.4284 37.1429L23.4284 36C23.4284 35.6844 23.6843 35.4286 23.9999 35.4286Z" fill="#408CFF"/>
<path d="M35.4287 24C35.4287 23.6844 35.6845 23.4286 36.0001 23.4286H37.143C37.4586 23.4286 37.7144 23.6844 37.7144 24C37.7144 24.3156 37.4586 24.5714 37.143 24.5714H36.0001C35.6845 24.5714 35.4287 24.3156 35.4287 24Z" fill="#408CFF"/>
</svg>
