<svg width="40" height="40" viewBox="0 0 40 40" fill="none" xmlns="http://www.w3.org/2000/svg">
<rect x="14.1187" y="7.80957" width="14.4762" height="19.9048" rx="2" fill="#D9E8FF"/>
<rect x="11.8574" y="4.99988" width="14.4762" height="19.9048" rx="2" fill="white"/>
<rect x="13.6665" y="7.80957" width="2.71429" height="3.61905" fill="#408CFF"/>
<rect x="17.2861" y="10.2971" width="7.2381" height="0.904762" fill="#408CFF"/>
<rect x="17.2861" y="8.71387" width="4.52381" height="0.904762" fill="#408CFF"/>
<path d="M7.3335 18.5714C7.3335 16.3623 9.12436 14.5714 11.3335 14.5714H12.2186C13.1544 14.5714 14.0605 14.8995 14.7794 15.4985L15.2686 15.9062C15.9874 16.5053 16.8936 16.8333 17.8293 16.8333H28.6668C30.876 16.8333 32.6668 18.6242 32.6668 20.8333V28.6667C32.6668 30.8758 30.876 32.6666 28.6668 32.6666H11.3335C9.12436 32.6666 7.3335 30.8758 7.3335 28.6666V18.5714Z" fill="#408CFF"/>
</svg>
