<svg width="48" height="48" viewBox="0 0 48 48" fill="none" xmlns="http://www.w3.org/2000/svg">
<path d="M10.4014 12C10.4014 9.79086 12.1922 8 14.4014 8H32.5723C34.7815 8 36.5723 9.79086 36.5723 12V24V36C36.5723 38.2091 34.7815 40 32.5723 40H14.4014C12.1922 40 10.4014 38.2091 10.4014 36V24V12Z" fill="#408CFF"/>
<path d="M14.8623 13.354C14.8623 12.697 15.3949 12.1644 16.0519 12.1644C16.7089 12.1644 17.2415 12.697 17.2415 13.354C17.2415 14.011 16.7089 14.5435 16.0519 14.5435C15.3949 14.5435 14.8623 14.011 14.8623 13.354Z" fill="white"/>
<path d="M13.9697 16.923C13.9697 15.7732 14.9018 14.8412 16.0515 14.8412C17.2012 14.8412 18.1333 15.7732 18.1333 16.923V17.5178H13.9697V16.923Z" fill="white"/>
<path d="M14.8623 22.2753C14.8623 21.6184 15.3949 21.0858 16.0519 21.0858C16.7089 21.0858 17.2415 21.6184 17.2415 22.2753C17.2415 22.9323 16.7089 23.4649 16.0519 23.4649C15.3949 23.4649 14.8623 22.9323 14.8623 22.2753Z" fill="white"/>
<path d="M13.9697 25.8444C13.9697 24.6947 14.9018 23.7626 16.0515 23.7626C17.2012 23.7626 18.1333 24.6947 18.1333 25.8444V26.4392H13.9697V25.8444Z" fill="white"/>
<path d="M14.8623 31.1976C14.8623 30.5406 15.3949 30.008 16.0519 30.008C16.7089 30.008 17.2415 30.5406 17.2415 31.1976C17.2415 31.8546 16.7089 32.3872 16.0519 32.3872C15.3949 32.3872 14.8623 31.8546 14.8623 31.1976Z" fill="white"/>
<path d="M13.9697 34.7657C13.9697 33.616 14.9018 32.684 16.0515 32.684C17.2012 32.684 18.1333 33.616 18.1333 34.7657V35.3605H13.9697V34.7657Z" fill="white"/>
<mask id="path-8-outside-1_8706_5122" maskUnits="userSpaceOnUse" x="18.4274" y="12.9991" width="29.6985" height="29.6985" fill="black">
<rect fill="white" x="18.4274" y="12.9991" width="29.6985" height="29.6985"/>
<path d="M25.9377 20.3381C28.5231 17.753 32.7146 17.7529 35.2999 20.3381C37.5645 22.6027 37.845 26.0996 36.1424 28.6701L40.9174 33.4451C41.4345 33.9622 41.4345 34.8008 40.9174 35.3178C40.4004 35.8349 39.5618 35.8349 39.0447 35.3178L34.2697 30.5428C31.6992 32.2459 28.2018 31.9658 25.937 29.701C23.3517 27.1156 23.3523 22.9234 25.9377 20.3381Z"/>
</mask>
<path d="M25.9377 20.3381C28.5231 17.753 32.7146 17.7529 35.2999 20.3381C37.5645 22.6027 37.845 26.0996 36.1424 28.6701L40.9174 33.4451C41.4345 33.9622 41.4345 34.8008 40.9174 35.3178C40.4004 35.8349 39.5618 35.8349 39.0447 35.3178L34.2697 30.5428C31.6992 32.2459 28.2018 31.9658 25.937 29.701C23.3517 27.1156 23.3523 22.9234 25.9377 20.3381Z" fill="#408CFF"/>
<path d="M25.9377 20.3381L24.8771 19.2774L24.877 19.2774L25.9377 20.3381ZM35.2999 20.3381L36.3606 19.2774L36.3606 19.2774L35.2999 20.3381ZM36.1424 28.6701L34.8918 27.8417L34.2148 28.8638L35.0817 29.7307L36.1424 28.6701ZM40.9174 35.3178L41.978 36.3785L41.9781 36.3785L40.9174 35.3178ZM34.2697 30.5428L35.3303 29.4821L34.4633 28.6151L33.4412 29.2923L34.2697 30.5428ZM25.937 29.701L24.8763 30.7617L24.8763 30.7617L25.937 29.701ZM25.9377 20.3381L26.9983 21.3988C28.9979 19.3994 32.2398 19.3994 34.2393 21.3988L35.2999 20.3381L36.3606 19.2774C33.1895 16.1064 28.0482 16.1066 24.8771 19.2774L25.9377 20.3381ZM35.2999 20.3381L34.2393 21.3987C35.9894 23.1488 36.2084 25.854 34.8918 27.8417L36.1424 28.6701L37.3929 29.4984C39.4815 26.3452 39.1397 22.0565 36.3606 19.2774L35.2999 20.3381ZM36.1424 28.6701L35.0817 29.7307L39.8568 34.5058L40.9174 33.4451L41.9781 32.3844L37.2031 27.6094L36.1424 28.6701ZM40.9174 33.4451L39.8568 34.5058C39.7881 34.4371 39.7881 34.3259 39.8568 34.2572L40.9174 35.3178L41.9781 36.3785C43.081 35.2756 43.081 33.4873 41.9781 32.3844L40.9174 33.4451ZM40.9174 35.3178L39.8568 34.2571C39.9255 34.1885 40.0366 34.1884 40.1054 34.2572L39.0447 35.3178L37.984 36.3785C39.0869 37.4814 40.8752 37.4812 41.978 36.3785L40.9174 35.3178ZM39.0447 35.3178L40.1054 34.2572L35.3303 29.4821L34.2697 30.5428L33.209 31.6034L37.984 36.3785L39.0447 35.3178ZM34.2697 30.5428L33.4412 29.2923C31.4534 30.6094 28.7478 30.3905 26.9976 28.6404L25.937 29.701L24.8763 30.7617C27.6557 33.5411 31.945 33.8824 35.0981 31.7932L34.2697 30.5428ZM25.937 29.701L26.9977 28.6404C24.9983 26.641 24.9986 23.3985 26.9983 21.3987L25.9377 20.3381L24.877 19.2774C21.7061 22.4484 21.7051 27.5903 24.8763 30.7617L25.937 29.701Z" fill="white" mask="url(#path-8-outside-1_8706_5122)"/>
<path d="M27.3413 28.2968C25.5316 26.487 25.5316 23.5528 27.3413 21.743C29.1511 19.9333 32.0853 19.9333 33.8951 21.743C35.7049 23.5528 35.7049 26.487 33.8951 28.2968C32.0853 30.1065 29.1511 30.1065 27.3413 28.2968Z" fill="white"/>
</svg>
