<svg width="24" height="24" viewBox="0 0 24 24" fill="none" xmlns="http://www.w3.org/2000/svg">
<circle cx="12" cy="12" r="9.75" stroke="#333333" stroke-width="1.5"/>
<path d="M10.9907 13.1709V13.3159H12.731V13.1709C12.7375 12.248 13.0671 11.8196 13.812 11.3779C14.6755 10.8572 15.2358 10.1716 15.2358 9.08398C15.2358 7.45581 13.9373 6.5 12.0981 6.5C10.4106 6.5 9.03296 7.38989 9 9.24219H10.8721C10.8984 8.47095 11.4719 8.06226 12.085 8.05566C12.7244 8.06226 13.2385 8.49072 13.2319 9.1499C13.2385 9.75635 12.7969 10.165 12.23 10.5342C11.439 11.0286 10.9973 11.5295 10.9907 13.1709ZM10.793 16.188C10.7798 16.801 11.2808 17.2954 11.9004 17.2954C12.4871 17.2954 12.9946 16.801 12.9946 16.188C12.9946 15.5815 12.4871 15.0872 11.9004 15.0938C11.2808 15.0872 10.7798 15.5815 10.793 16.188Z" fill="#3F58D4" stroke="#3F58D4" stroke-width="0.5"/>
</svg>
