<svg width="24" height="24" viewBox="0 0 24 24" fill="none" xmlns="http://www.w3.org/2000/svg">
<g clip-path="url(#clip0_8099_4008)">
<path d="M10.4395 7.14098V4.2349C10.4395 3.45698 11.091 2.82353 11.8912 2.82353H21.5335C22.3337 2.82353 22.9853 3.45698 22.9853 4.2349V11.6418C22.9853 12.4197 22.3337 13.0532 21.5335 13.0532H18.8186L16.7152 16.5983L14.6119 13.0532H13.2916" stroke="#333333" stroke-width="1.5" stroke-linecap="round" stroke-linejoin="round"/>
<path d="M2.15211 7.14102H11.7944C12.6003 7.14102 13.2462 7.77447 13.2462 8.55239V15.9593C13.2462 16.7428 12.5946 17.3707 11.7944 17.3707H9.07948L6.97612 20.9157L4.87276 17.3707H2.15783C1.35192 17.3707 0.706055 16.7372 0.706055 15.9593V8.55239C0.706055 7.77447 1.35764 7.14102 2.15783 7.14102H2.15211Z" fill="#3F58D4" stroke="#3F58D4" stroke-width="1.5" stroke-linecap="round" stroke-linejoin="round"/>
<circle cx="7" cy="12" r="1" fill="white"/>
<circle cx="3" cy="12" r="1" fill="white"/>
<circle cx="11" cy="12" r="1" fill="white"/>
</g>
<defs>
<clipPath id="clip0_8099_4008">
<rect width="24" height="24" fill="white"/>
</clipPath>
</defs>
</svg>
