<svg width="24" height="24" viewBox="0 0 24 24" fill="none" xmlns="http://www.w3.org/2000/svg">
<path d="M10.875 11.25C13.5674 11.25 15.75 9.06739 15.75 6.375C15.75 3.68261 13.5674 1.5 10.875 1.5C8.18261 1.5 6 3.68261 6 6.375C6 9.06739 8.18261 11.25 10.875 11.25Z" stroke="#333333" stroke-width="1.5" stroke-linecap="round" stroke-linejoin="round"/>
<path d="M3 21C3 17.2682 6.497 14.25 10.8024 14.25" stroke="#333333" stroke-width="1.5" stroke-linecap="round" stroke-linejoin="round"/>
<path d="M21.75 18C21.75 18.36 21.705 18.7087 21.615 19.0462C21.5138 19.4962 21.3338 19.935 21.0975 20.3175C20.3213 21.6225 18.8925 22.5 17.25 22.5C16.0912 22.5 15.045 22.0612 14.2575 21.3412C13.92 21.0487 13.6275 20.7 13.4025 20.3175C12.9862 19.6425 12.75 18.8438 12.75 18C12.75 16.785 13.2338 15.6713 14.0213 14.8613C14.8425 14.0175 15.99 13.5 17.25 13.5C18.5775 13.5 19.7813 14.0738 20.5913 14.9963C21.3113 15.795 21.75 16.8525 21.75 18Z" fill="#3F58D4" stroke="#3F58D4" stroke-width="1.5" stroke-miterlimit="10" stroke-linecap="round" stroke-linejoin="round"/>
<path d="M19.098 17.9766H15.6523" stroke="white" stroke-width="1.5" stroke-miterlimit="10" stroke-linecap="round" stroke-linejoin="round"/>
<path d="M17.375 16.418V19.6093" stroke="white" stroke-width="1.5" stroke-miterlimit="10" stroke-linecap="round" stroke-linejoin="round"/>
</svg>
