<svg width="100" height="32" viewBox="0 0 100 32" fill="none" xmlns="http://www.w3.org/2000/svg">
<path d="M24.6084 15.593C21.9568 13.7917 18.5555 14.5232 16.7633 17.2388C15.2729 19.5064 13.0237 19.7898 12.1459 19.7898C9.30227 19.7898 7.36385 17.7874 6.78781 15.721C6.78781 15.721 6.78781 15.6844 6.76953 15.6661C6.76953 15.6387 6.76038 15.6204 6.75124 15.593C6.52265 14.7335 6.46779 14.3129 6.46779 13.3985C6.46779 8.45192 11.5424 2.94756 18.848 2.94756C26.1537 2.94756 30.6157 8.64394 31.7129 11.8076C31.6946 11.7527 31.6763 11.6979 31.658 11.643C29.5368 5.45287 23.6666 1 16.7542 1C8.05875 1 1 8.04961 1 16.7542C1 24.5353 6.61409 31.1917 14.3952 31.1917C20.6036 31.1917 24.773 27.7081 26.684 22.9169C27.7355 20.2927 26.9857 17.2114 24.6084 15.593Z" fill="#003668"/>
<path d="M31.8222 12.1183C30.8988 9.02778 26.583 2.94738 18.8568 2.94738C11.5512 2.94738 6.47656 8.45174 6.47656 13.3984C6.47656 14.3127 6.53142 14.7242 6.76001 15.5928C6.66858 15.2179 6.61371 14.8339 6.61371 14.4681C6.61371 9.32037 11.7706 5.75442 17.0738 5.75442C24.2515 5.75442 30.0667 11.5697 30.0667 18.7473C30.0667 24.3705 26.8299 29.244 22.1302 31.5756C28.1923 29.3811 32.5263 23.575 32.5263 16.754C32.5263 15.1356 32.3069 13.7184 31.8314 12.1183H31.8222Z" fill="#E6002D"/>
<path d="M47.0807 21.4911V16.1454H49.2209V21.4911H56.8274V23.3902H40.9814V21.4911H47.0807ZM53.3809 18.4766V10.2572H42.2073V8.35812H55.5212V18.4766H53.3809Z" fill="#595857"/>
<path d="M74.8938 15.2715V17.1104H59.0479V15.2715H62.2331V13.6638H64.3533V15.2715H69.5783V13.6638H71.6985V15.2715H74.8838H74.8938ZM71.2262 10.4786C71.2262 11.0111 71.1157 11.5035 70.8946 11.9858C70.6736 12.4581 70.3621 12.8801 69.9803 13.2318C69.5884 13.5835 69.1262 13.8749 68.6137 14.0859C68.1013 14.2969 67.5486 14.4074 66.9658 14.4074C66.383 14.4074 65.8404 14.3069 65.3179 14.0859C64.8055 13.8749 64.3432 13.5935 63.9514 13.2318C63.5695 12.8801 63.2681 12.4581 63.037 11.9858C62.8159 11.5135 62.7054 11.0111 62.7054 10.4786C62.7054 9.94602 62.8159 9.44361 63.037 8.97135C63.258 8.49908 63.5695 8.07706 63.9514 7.72537C64.3432 7.37369 64.8055 7.08229 65.3179 6.87128C65.8304 6.66027 66.383 6.54974 66.9658 6.54974C67.5486 6.54974 68.0912 6.66027 68.6137 6.87128C69.1262 7.08229 69.5884 7.36364 69.9803 7.72537C70.3621 8.07706 70.6635 8.49908 70.8946 8.97135C71.1157 9.44361 71.2262 9.94602 71.2262 10.4786ZM71.2262 21.5115C71.2262 22.044 71.1157 22.5364 70.8946 23.0187C70.6736 23.491 70.3621 23.913 69.9803 24.2647C69.5884 24.6163 69.1262 24.9077 68.6137 25.1188C68.1013 25.3298 67.5486 25.4403 66.9658 25.4403C66.383 25.4403 65.8404 25.3398 65.3179 25.1188C64.7954 24.8977 64.3432 24.6264 63.9514 24.2647C63.5695 23.913 63.2681 23.491 63.037 23.0187C62.8159 22.5464 62.7054 22.044 62.7054 21.5115C62.7054 20.9789 62.8159 20.4765 63.037 20.0042C63.258 19.532 63.5695 19.11 63.9514 18.7583C64.3432 18.4066 64.8055 18.1152 65.3179 17.9042C65.8304 17.6932 66.383 17.5826 66.9658 17.5826C67.5486 17.5826 68.0912 17.6831 68.6137 17.9042C69.1262 18.1152 69.5884 18.3965 69.9803 18.7583C70.3621 19.11 70.6635 19.532 70.8946 20.0042C71.1157 20.4765 71.2262 20.9789 71.2262 21.5115ZM69.1061 10.4786C69.1061 9.88573 68.8951 9.38332 68.4831 8.98139C68.0711 8.57947 67.5587 8.3785 66.9658 8.3785C66.373 8.3785 65.8706 8.57947 65.4485 8.98139C65.0366 9.38332 64.8256 9.88573 64.8256 10.4786C64.8256 11.0714 65.0366 11.5738 65.4485 11.9757C65.8605 12.3777 66.373 12.5786 66.9658 12.5786C67.5587 12.5786 68.0611 12.3777 68.4831 11.9757C68.9051 11.5738 69.1061 11.0714 69.1061 10.4786ZM69.1061 21.5115C69.1061 20.9186 68.8951 20.4162 68.4831 20.0143C68.0711 19.6124 67.5587 19.4114 66.9658 19.4114C66.373 19.4114 65.8706 19.6124 65.4485 20.0143C65.0366 20.4162 64.8256 20.9186 64.8256 21.5115C64.8256 22.1043 65.0366 22.6067 65.4485 23.0086C65.8605 23.4106 66.373 23.6115 66.9658 23.6115C67.5587 23.6115 68.0611 23.4106 68.4831 23.0086C68.8951 22.6067 69.1061 22.1043 69.1061 21.5115Z" fill="#595857"/>
<path d="M86.5803 22.4656H77.4264V20.6871L82.34 16.095C83.5859 14.9295 84.1989 13.9246 84.1989 13.0605C84.1989 12.3873 83.9879 11.8145 83.5558 11.3523C83.1237 10.8901 82.5309 10.659 81.7672 10.659C81.2146 10.659 80.7021 10.88 80.2198 11.3322C79.838 11.6839 79.5767 12.2466 79.4461 13.0203C79.4159 13.2012 79.3958 13.3921 79.3657 13.5931L77.2656 13.0605C77.3058 11.8145 77.7479 10.7896 78.5819 9.96566C79.4159 9.15176 80.5313 8.73978 81.9179 8.73978C83.2242 8.73978 84.3094 9.16181 85.1635 10.0059C86.0176 10.8499 86.4497 11.8447 86.4497 13.0002C86.4497 13.6433 86.2889 14.2964 85.9573 14.9596C85.6257 15.6228 85.1233 16.2659 84.43 16.8989L80.5313 20.5665H86.5702V22.4656H86.5803Z" fill="#595857"/>
<path d="M97.3215 22.4663H95.1008V20.0447H88.8408V18.3365L95.2214 8.96155H97.3215V18.1355H99.1V20.0346H97.3215V22.4562V22.4663ZM95.1008 18.1456V12.4784L91.3328 18.1456H95.1008Z" fill="#595857"/>
</svg>
